<svg xmlns="http://www.w3.org/2000/svg" xmlns:xlink="http://www.w3.org/1999/xlink" width="3000" zoomAndPan="magnify" viewBox="0 0 2250 749.999995" height="1000" preserveAspectRatio="xMidYMid meet" version="1.0"><defs><g/><clipPath id="fc23da3c9d"><path d="M 0 0 L 2250 0 L 2250 695.023438 L 0 695.023438 Z M 0 0 " clip-rule="nonzero"/></clipPath><clipPath id="e64932f4ae"><path d="M 0.0117188 0 L 2249.988281 0 L 2249.988281 695.015625 L 0.0117188 695.015625 Z M 0.0117188 0 " clip-rule="nonzero"/></clipPath><clipPath id="bf8c5060b7"><path d="M 609.148438 594.808594 L 1640.851562 594.808594 L 1640.851562 739.207031 L 609.148438 739.207031 Z M 609.148438 594.808594 " clip-rule="nonzero"/></clipPath></defs><g clip-path="url(#fc23da3c9d)"><path fill="#000000" d="M 0 0 L 2250.679688 0 L 2250.679688 695.023438 L 0 695.023438 Z M 0 0 " fill-opacity="1" fill-rule="nonzero"/></g><g clip-path="url(#e64932f4ae)"><path stroke-linecap="butt" transform="matrix(0.75, 0, 0, 0.75, 0.0119824, 0.00002)" fill="none" stroke-linejoin="miter" d="M -0.000351587 -0.0000266667 L 2999.968545 -0.0000266667 L 2999.968545 926.687518 L -0.000351587 926.687518 Z M -0.000351587 -0.0000266667 " stroke="#ffffff" stroke-width="8" stroke-opacity="1" stroke-miterlimit="4"/></g><g clip-path="url(#bf8c5060b7)"><path fill="#000000" d="M 609.148438 594.808594 L 1640.804688 594.808594 L 1640.804688 739.207031 L 609.148438 739.207031 Z M 609.148438 594.808594 " fill-opacity="1" fill-rule="nonzero"/></g><g fill="#ffffff" fill-opacity="1"><g transform="translate(623.982294, 478.818603)"><g><path d="M 210.71875 -285.015625 L 210.71875 -229.390625 L 94.59375 -229.390625 L 94.59375 -169.296875 L 181.484375 -169.296875 L 181.484375 -115.296875 L 94.59375 -115.296875 L 94.59375 0 L 25.171875 0 L 25.171875 -285.015625 Z M 210.71875 -285.015625 "/></g></g></g><g fill="#ffffff" fill-opacity="1"><g transform="translate(861.065915, 478.818603)"><g><path d="M 94.59375 -53.59375 L 185.546875 -53.59375 L 185.546875 0 L 25.171875 0 L 25.171875 -285.015625 L 94.59375 -285.015625 Z M 94.59375 -53.59375 "/></g></g></g><g fill="#ffffff" fill-opacity="1"><g transform="translate(1069.732528, 478.818603)"><g><path d="M 202.59375 -50.34375 L 96.21875 -50.34375 L 79.171875 0 L 6.5 0 L 109.625 -285.015625 L 190.015625 -285.015625 L 293.125 0 L 219.640625 0 Z M 184.734375 -103.9375 L 149.40625 -208.28125 L 114.484375 -103.9375 Z M 184.734375 -103.9375 "/></g></g></g><g fill="#ffffff" fill-opacity="1"><g transform="translate(1383.948263, 478.818603)"><g><path d="M 99.0625 -56.84375 L 221.671875 -56.84375 L 221.671875 0 L 20.296875 0 L 20.296875 -52.78125 L 142.09375 -228.171875 L 20.296875 -228.171875 L 20.296875 -285.015625 L 221.671875 -285.015625 L 221.671875 -232.234375 Z M 99.0625 -56.84375 "/></g></g></g><g fill="#ffffff" fill-opacity="1"><g transform="translate(844.79069, 716.416965)"><g><path d="M 54.171875 0.96875 C 45.273438 0.96875 37.207031 -1.113281 29.96875 -5.28125 C 22.726562 -9.457031 17.019531 -15.28125 12.84375 -22.75 C 8.675781 -30.21875 6.59375 -38.675781 6.59375 -48.125 C 6.59375 -57.5625 8.675781 -66.015625 12.84375 -73.484375 C 17.019531 -80.953125 22.726562 -86.769531 29.96875 -90.9375 C 37.207031 -95.113281 45.273438 -97.203125 54.171875 -97.203125 C 63.148438 -97.203125 71.257812 -95.113281 78.5 -90.9375 C 85.738281 -86.769531 91.421875 -80.953125 95.546875 -73.484375 C 99.671875 -66.015625 101.734375 -57.5625 101.734375 -48.125 C 101.734375 -38.675781 99.671875 -30.21875 95.546875 -22.75 C 91.421875 -15.28125 85.738281 -9.457031 78.5 -5.28125 C 71.257812 -1.113281 63.148438 0.96875 54.171875 0.96875 Z M 54.171875 -7.421875 C 61.316406 -7.421875 67.726562 -9.070312 73.40625 -12.375 C 79.09375 -15.675781 83.585938 -20.421875 86.890625 -26.609375 C 90.191406 -32.796875 91.84375 -39.96875 91.84375 -48.125 C 91.84375 -56.28125 90.191406 -63.425781 86.890625 -69.5625 C 83.585938 -75.707031 79.09375 -80.425781 73.40625 -83.71875 C 67.726562 -87.019531 61.316406 -88.671875 54.171875 -88.671875 C 47.015625 -88.671875 40.59375 -87.019531 34.90625 -83.71875 C 29.226562 -80.425781 24.738281 -75.707031 21.4375 -69.5625 C 18.144531 -63.425781 16.5 -56.28125 16.5 -48.125 C 16.5 -39.96875 18.144531 -32.796875 21.4375 -26.609375 C 24.738281 -20.421875 29.226562 -15.675781 34.90625 -12.375 C 40.59375 -9.070312 47.015625 -7.421875 54.171875 -7.421875 Z M 54.171875 -7.421875 "/></g></g></g><g fill="#ffffff" fill-opacity="1"><g transform="translate(953.119073, 716.416965)"><g><path d="M 62.96875 -96.09375 L 62.96875 -88.125 L 20.625 -88.125 L 20.625 -52.25 L 56.375 -52.25 L 56.375 -44.265625 L 20.625 -44.265625 L 20.625 0 L 11 0 L 11 -96.09375 Z M 62.96875 -96.09375 "/></g></g></g><g fill="#ffffff" fill-opacity="1"><g transform="translate(1020.893025, 716.416965)"><g><path d="M 62.96875 -96.09375 L 62.96875 -88.125 L 20.625 -88.125 L 20.625 -52.25 L 56.375 -52.25 L 56.375 -44.265625 L 20.625 -44.265625 L 20.625 0 L 11 0 L 11 -96.09375 Z M 62.96875 -96.09375 "/></g></g></g><g fill="#ffffff" fill-opacity="1"><g transform="translate(1088.666976, 716.416965)"><g><path d="M 20.625 -96.09375 L 20.625 0 L 11 0 L 11 -96.09375 Z M 20.625 -96.09375 "/></g></g></g><g fill="#ffffff" fill-opacity="1"><g transform="translate(1120.148172, 716.416965)"><g><path d="M 6.59375 -48.125 C 6.59375 -57.5625 8.65625 -66.015625 12.78125 -73.484375 C 16.90625 -80.953125 22.539062 -86.769531 29.6875 -90.9375 C 36.84375 -95.113281 44.820312 -97.203125 53.625 -97.203125 C 64.34375 -97.203125 73.53125 -94.65625 81.1875 -89.5625 C 88.84375 -84.476562 94.410156 -77.3125 97.890625 -68.0625 L 86.609375 -68.0625 C 83.859375 -74.5625 79.664062 -79.644531 74.03125 -83.3125 C 68.394531 -86.976562 61.59375 -88.8125 53.625 -88.8125 C 46.5625 -88.8125 40.210938 -87.160156 34.578125 -83.859375 C 28.941406 -80.566406 24.519531 -75.828125 21.3125 -69.640625 C 18.101562 -63.453125 16.5 -56.28125 16.5 -48.125 C 16.5 -39.96875 18.101562 -32.816406 21.3125 -26.671875 C 24.519531 -20.523438 28.941406 -15.800781 34.578125 -12.5 C 40.210938 -9.207031 46.5625 -7.5625 53.625 -7.5625 C 61.59375 -7.5625 68.394531 -9.367188 74.03125 -12.984375 C 79.664062 -16.609375 83.859375 -21.628906 86.609375 -28.046875 L 97.890625 -28.046875 C 94.410156 -18.878906 88.816406 -11.773438 81.109375 -6.734375 C 73.410156 -1.691406 64.25 0.828125 53.625 0.828125 C 44.820312 0.828125 36.84375 -1.253906 29.6875 -5.421875 C 22.539062 -9.597656 16.90625 -15.394531 12.78125 -22.8125 C 8.65625 -30.238281 6.59375 -38.675781 6.59375 -48.125 Z M 6.59375 -48.125 "/></g></g></g><g fill="#ffffff" fill-opacity="1"><g transform="translate(1226.139524, 716.416965)"><g><path d="M 20.625 -96.09375 L 20.625 0 L 11 0 L 11 -96.09375 Z M 20.625 -96.09375 "/></g></g></g><g fill="#ffffff" fill-opacity="1"><g transform="translate(1257.620719, 716.416965)"><g><path d="M 66.6875 -22.828125 L 22.953125 -22.828125 L 14.578125 0 L 4.40625 0 L 39.453125 -94.859375 L 50.3125 -94.859375 L 85.234375 0 L 75.0625 0 Z M 63.796875 -30.796875 L 44.8125 -82.765625 L 25.84375 -30.796875 Z M 63.796875 -30.796875 "/></g></g></g><g fill="#ffffff" fill-opacity="1"><g transform="translate(1347.252842, 716.416965)"><g><path d="M 20.625 -7.84375 L 55.125 -7.84375 L 55.125 0 L 11 0 L 11 -96.09375 L 20.625 -96.09375 Z M 20.625 -7.84375 "/></g></g></g></svg>